<svg width="55" height="69" viewBox="0 0 55 69" fill="none" xmlns="http://www.w3.org/2000/svg">
<path fill-rule="evenodd" clip-rule="evenodd" d="M3.56848 27.5683C3.56848 27.1817 3.88188 26.8683 4.26848 26.8683L47.0014 26.8683C47.388 26.8683 47.7014 27.1817 47.7014 27.5683C47.7014 27.9549 47.388 28.2683 47.0014 28.2683L4.26848 28.2683C3.88188 28.2683 3.56848 27.9549 3.56848 27.5683Z" fill="#F0EBF4"/>
<path fill-rule="evenodd" clip-rule="evenodd" d="M9.65479 68.2453C9.65479 67.8587 9.96819 67.5453 10.3548 67.5453H44.5887C44.9753 67.5453 45.2887 67.8587 45.2887 68.2453C45.2887 68.6319 44.9753 68.9453 44.5887 68.9453H10.3548C9.96819 68.9453 9.65479 68.6319 9.65479 68.2453Z" fill="#F0EBF4"/>
<path fill-rule="evenodd" clip-rule="evenodd" d="M48.9411 26.8964C49.3256 26.9369 49.6045 27.2814 49.564 27.6659L45.2848 68.3186C45.2443 68.7031 44.8998 68.982 44.5153 68.9415C44.1309 68.901 43.852 68.5565 43.8925 68.1721L48.1717 27.5193C48.2122 27.1348 48.5566 26.8559 48.9411 26.8964Z" fill="#F0EBF4"/>
<path fill-rule="evenodd" clip-rule="evenodd" d="M10.4281 68.9414C10.8125 68.901 11.0914 68.5565 11.0509 68.172L6.7717 27.5192C6.73123 27.1348 6.38674 26.8559 6.00227 26.8964C5.61779 26.9368 5.33892 27.2813 5.37939 27.6658L9.65863 68.3186C9.6991 68.703 10.0436 68.9819 10.4281 68.9414Z" fill="#F0EBF4"/>
<path fill-rule="evenodd" clip-rule="evenodd" d="M29.7941 21.8365C29.9874 21.8365 30.1441 21.9932 30.1441 22.1865V27.7454C30.1441 27.9387 29.9874 28.0954 29.7941 28.0954C29.6008 28.0954 29.4441 27.9387 29.4441 27.7454V22.1865C29.4441 21.9932 29.6008 21.8365 29.7941 21.8365Z" fill="#F0EBF4"/>
<path d="M15 35.25C15 35.0511 15.079 34.8603 15.2197 34.7197C15.3603 34.579 15.5511 34.5 15.75 34.5H18C18.1673 34.5 18.3298 34.556 18.4616 34.659C18.5934 34.762 18.687 34.9062 18.7275 35.0685L19.335 37.5H36.75C36.8609 37.5001 36.9704 37.5247 37.0707 37.5722C37.1709 37.6197 37.2594 37.6889 37.3297 37.7746C37.4 37.8604 37.4504 37.9608 37.4772 38.0684C37.5041 38.176 37.5067 38.2882 37.485 38.397L35.985 45.897C35.9522 46.0605 35.8658 46.2085 35.7395 46.3174C35.6131 46.4264 35.4541 46.4901 35.2875 46.4985L21.192 47.2065L21.6225 49.5H34.5C34.6989 49.5 34.8897 49.579 35.0303 49.7197C35.171 49.8603 35.25 50.0511 35.25 50.25C35.25 50.4489 35.171 50.6397 35.0303 50.7803C34.8897 50.921 34.6989 51 34.5 51H21C20.8251 50.9998 20.6558 50.9386 20.5214 50.8268C20.3869 50.7151 20.2957 50.5599 20.2635 50.388L18.015 38.4105L17.415 36H15.75C15.5511 36 15.3603 35.921 15.2197 35.7803C15.079 35.6397 15 35.4489 15 35.25ZM19.653 39L20.913 45.7185L34.629 45.03L35.835 39H19.653ZM22.5 51C21.7043 51 20.9413 51.3161 20.3787 51.8787C19.8161 52.4413 19.5 53.2044 19.5 54C19.5 54.7956 19.8161 55.5587 20.3787 56.1213C20.9413 56.6839 21.7043 57 22.5 57C23.2956 57 24.0587 56.6839 24.6213 56.1213C25.1839 55.5587 25.5 54.7956 25.5 54C25.5 53.2044 25.1839 52.4413 24.6213 51.8787C24.0587 51.3161 23.2956 51 22.5 51ZM33 51C32.2043 51 31.4413 51.3161 30.8787 51.8787C30.3161 52.4413 30 53.2044 30 54C30 54.7956 30.3161 55.5587 30.8787 56.1213C31.4413 56.6839 32.2043 57 33 57C33.7956 57 34.5587 56.6839 35.1213 56.1213C35.6839 55.5587 36 54.7956 36 54C36 53.2044 35.6839 52.4413 35.1213 51.8787C34.5587 51.3161 33.7956 51 33 51ZM22.5 52.5C22.8978 52.5 23.2794 52.658 23.5607 52.9393C23.842 53.2206 24 53.6022 24 54C24 54.3978 23.842 54.7794 23.5607 55.0607C23.2794 55.342 22.8978 55.5 22.5 55.5C22.1022 55.5 21.7206 55.342 21.4393 55.0607C21.158 54.7794 21 54.3978 21 54C21 53.6022 21.158 53.2206 21.4393 52.9393C21.7206 52.658 22.1022 52.5 22.5 52.5ZM33 52.5C33.3978 52.5 33.7794 52.658 34.0607 52.9393C34.342 53.2206 34.5 53.6022 34.5 54C34.5 54.3978 34.342 54.7794 34.0607 55.0607C33.7794 55.342 33.3978 55.5 33 55.5C32.6022 55.5 32.2206 55.342 31.9393 55.0607C31.658 54.7794 31.5 54.3978 31.5 54C31.5 53.6022 31.658 53.2206 31.9393 52.9393C32.2206 52.658 32.6022 52.5 33 52.5Z" fill="#F0EBF4"/>
<path fill-rule="evenodd" clip-rule="evenodd" d="M43.9478 12.4285C43.7647 12.3667 43.5661 12.4651 43.5043 12.6483C42.9011 14.4368 42.5317 17.2903 42.3113 20.0997C42.09 22.9198 42.0163 25.7342 42.0163 27.4667C42.0163 27.6601 42.173 27.8168 42.3663 27.8168C42.5596 27.8168 42.7163 27.6601 42.7163 27.4667C42.7163 25.7496 42.7895 22.9537 43.0091 20.1545C43.2296 17.3446 43.5951 14.5697 44.1676 12.8722C44.2294 12.689 44.131 12.4903 43.9478 12.4285Z" fill="#F0EBF4"/>
<g clip-path="url(#clip0_11_75)">
<path d="M49.0196 1.97451C48.8893 1.68283 48.6775 1.43513 48.4096 1.26131C48.1417 1.08749 47.8293 0.994995 47.51 0.994995C47.1908 0.994995 46.8783 1.08749 46.6105 1.26131C46.3426 1.43513 46.1308 1.68283 46.0005 1.97451C45.742 1.78674 45.4346 1.67794 45.1156 1.66126C44.7966 1.64458 44.4796 1.72074 44.2029 1.88052C43.9262 2.0403 43.7017 2.27687 43.5566 2.56162C43.4114 2.84637 43.3518 3.1671 43.3849 3.48504C43.0672 3.4519 42.7467 3.51156 42.4621 3.65683C42.1775 3.8021 41.9411 4.02675 41.7815 4.30361C41.6218 4.58048 41.5457 4.8977 41.5624 5.21693C41.579 5.53616 41.6878 5.84372 41.8754 6.10242C41.5839 6.23275 41.3364 6.44474 41.1627 6.71279C40.989 6.98084 40.8965 7.29348 40.8965 7.61295C40.8965 7.93243 40.989 8.24507 41.1627 8.51312C41.3364 8.78116 41.5839 8.99316 41.8754 9.12349C41.6878 9.38219 41.579 9.68975 41.5624 10.009C41.5457 10.3282 41.6218 10.6454 41.7815 10.9223C41.9411 11.1992 42.1775 11.4238 42.4621 11.5691C42.7467 11.7143 43.0672 11.774 43.3849 11.7409C43.3518 12.0588 43.4114 12.3795 43.5566 12.6643C43.7017 12.949 43.9262 13.1856 44.2029 13.3454C44.4796 13.5052 44.7966 13.5813 45.1156 13.5646C45.4346 13.548 45.742 13.4392 46.0005 13.2514C46.1308 13.5431 46.3426 13.7908 46.6105 13.9646C46.8783 14.1384 47.1908 14.2309 47.51 14.2309C47.8293 14.2309 48.1417 14.1384 48.4096 13.9646C48.6775 13.7908 48.8893 13.5431 49.0196 13.2514C49.2781 13.4392 49.5854 13.548 49.9044 13.5646C50.2235 13.5813 50.5405 13.5052 50.8171 13.3454C51.0938 13.1856 51.3183 12.949 51.4635 12.6643C51.6087 12.3795 51.6683 12.0588 51.6352 11.7409C51.9529 11.774 52.2734 11.7143 52.558 11.5691C52.8425 11.4238 53.0789 11.1992 53.2386 10.9223C53.3983 10.6454 53.4744 10.3282 53.4577 10.009C53.441 9.68975 53.3323 9.38219 53.1447 9.12349C53.4362 8.99316 53.6837 8.78116 53.8574 8.51312C54.0311 8.24507 54.1235 7.93243 54.1235 7.61295C54.1235 7.29348 54.0311 6.98084 53.8574 6.71279C53.6837 6.44474 53.4362 6.23275 53.1447 6.10242C53.3323 5.84372 53.441 5.53616 53.4577 5.21693C53.4744 4.8977 53.3983 4.58048 53.2386 4.30361C53.0789 4.02675 52.8425 3.8021 52.558 3.65683C52.2734 3.51156 51.9529 3.4519 51.6352 3.48504C51.6683 3.1671 51.6087 2.84637 51.4635 2.56162C51.3183 2.27687 51.0938 2.0403 50.8171 1.88052C50.5405 1.72074 50.2235 1.64458 49.9044 1.66126C49.5854 1.67794 49.2781 1.78674 49.0196 1.97451ZM47.51 1.8223C47.6206 1.82247 47.73 1.84482 47.8317 1.88804C47.9335 1.93125 48.0255 1.99445 48.1025 2.07389C48.1794 2.15333 48.2396 2.2474 48.2795 2.35054C48.3195 2.45368 48.3384 2.56379 48.3351 2.67435L48.3268 2.74963C48.3169 2.81333 48.3028 2.89522 48.2822 2.99449C48.2416 3.19386 48.1813 3.44285 48.1061 3.72825C47.9556 4.29739 47.7523 4.97986 47.5472 5.64248L47.51 5.7616L47.4728 5.64248C47.2678 4.98069 47.0645 4.29739 46.914 3.72825C46.8388 3.44285 46.7784 3.19386 46.7379 2.99449C46.7161 2.88879 46.6985 2.78227 46.685 2.67518L46.6834 2.64953C46.6834 2.43014 46.7705 2.21973 46.9255 2.06459C47.0805 1.90945 47.2908 1.8223 47.51 1.8223ZM52.4701 8.44019L52.4453 8.43854L52.3701 8.43026C52.2881 8.41784 52.2065 8.40294 52.1254 8.38559C51.9262 8.34506 51.6773 8.28467 51.3921 8.20939C50.7508 8.0357 50.1131 7.84926 49.4792 7.65018L49.3601 7.61295L49.4792 7.57573C50.1131 7.37665 50.7508 7.19021 51.3921 7.01652C51.6349 6.95111 51.8794 6.89236 52.1254 6.84031C52.231 6.8185 52.3375 6.80084 52.4445 6.78737L52.4701 6.78572C52.6894 6.78572 52.8996 6.87287 53.0547 7.02801C53.2097 7.18315 53.2968 7.39356 53.2968 7.61295C53.2968 7.83235 53.2097 8.04276 53.0547 8.1979C52.8996 8.35304 52.6894 8.44019 52.4701 8.44019ZM46.6834 12.5764L46.685 12.5516C46.6985 12.4445 46.7161 12.3379 46.7379 12.2322C46.7898 11.9858 46.8485 11.7408 46.914 11.4977C47.0876 10.8559 47.2739 10.2177 47.4728 9.58343L47.51 9.46431L47.5472 9.58343C47.7523 10.2452 47.9556 10.9285 48.1061 11.4977C48.1813 11.7831 48.2416 12.0321 48.2822 12.2314C48.3039 12.3371 48.3216 12.4436 48.3351 12.5507L48.3367 12.5764C48.3367 12.7958 48.2496 13.0062 48.0946 13.1613C47.9396 13.3165 47.7293 13.4036 47.51 13.4036C47.2908 13.4036 47.0805 13.3165 46.9255 13.1613C46.7705 13.0062 46.6834 12.7958 46.6834 12.5764ZM51.3921 10.8111L51.3715 10.797C51.2853 10.7319 51.2018 10.6635 51.121 10.5918C50.9689 10.4562 50.7837 10.28 50.5745 10.0715C50.1057 9.60034 49.6462 9.1199 49.1965 8.63045L49.1113 8.53863L49.2328 8.56593C49.8815 8.71084 50.5273 8.8686 51.1697 9.03911C51.4541 9.11604 51.6988 9.18801 51.8923 9.25254C51.9948 9.28666 52.096 9.32474 52.1957 9.3667L52.218 9.37828C52.3127 9.4322 52.3959 9.50435 52.4627 9.59057C52.5295 9.67679 52.5786 9.77538 52.6072 9.88066C52.6357 9.98595 52.6432 10.0958 52.6292 10.204C52.6151 10.3122 52.5798 10.4166 52.5253 10.511C52.4708 10.6055 52.3981 10.6883 52.3115 10.7545C52.2249 10.8208 52.1261 10.8693 52.0207 10.8972C51.9153 10.925 51.8054 10.9318 51.6974 10.917C51.5894 10.9022 51.4853 10.8662 51.3913 10.8111H51.3921ZM50.4034 12.6277C50.2135 12.7374 49.9879 12.7671 49.7761 12.7103C49.5644 12.6535 49.3838 12.5149 49.2742 12.3249L49.2626 12.3026C49.2543 12.286 49.2452 12.2628 49.2328 12.2331C49.2024 12.1559 49.1743 12.0778 49.1485 11.999C49.084 11.8062 49.0121 11.5605 48.9352 11.276C48.7648 10.6331 48.6071 9.98689 48.4624 9.33774L48.4351 9.21614L48.526 9.30052C49.0154 9.75061 49.4958 10.2104 49.9669 10.6795C50.1451 10.8568 50.3185 11.0389 50.4869 11.2255C50.5585 11.3066 50.6269 11.3905 50.6919 11.477L50.706 11.4977C50.8156 11.6877 50.8453 11.9134 50.7886 12.1254C50.7318 12.3373 50.5933 12.518 50.4034 12.6277ZM42.8013 5.84763C42.6129 5.73715 42.4759 5.55662 42.4201 5.34543C42.3643 5.13424 42.3943 4.90954 42.5034 4.72036C42.6126 4.53118 42.7921 4.39289 43.0028 4.33565C43.2134 4.27842 43.4382 4.30689 43.628 4.41486L43.6486 4.42892C43.7348 4.49397 43.8183 4.56241 43.8991 4.63408C44.086 4.8025 44.2682 4.97601 44.4455 5.15441C44.9144 5.62558 45.3738 6.10602 45.8236 6.59545L45.9079 6.68728L45.7864 6.65998C45.138 6.51511 44.4925 6.35736 43.8503 6.1868C43.5651 6.10987 43.3196 6.0379 43.127 5.97337C43.0244 5.93931 42.9232 5.90123 42.8236 5.85921C42.816 5.85557 42.8086 5.8517 42.8013 5.84763ZM44.6167 2.59825C44.8065 2.48855 45.0322 2.45883 45.2439 2.51561C45.4557 2.57239 45.6363 2.71102 45.7459 2.90101L45.7575 2.92335C45.7657 2.9399 45.7748 2.96306 45.7872 2.99284C45.8176 3.07003 45.8458 3.1481 45.8716 3.22695C45.936 3.41969 46.008 3.66538 46.0848 3.95078C46.2553 4.59337 46.4129 5.2393 46.5577 5.88817L46.585 6.00977L46.494 5.92539C46.0047 5.4753 45.5243 5.01554 45.0531 4.54639C44.8448 4.3371 44.6687 4.1518 44.5332 4.00041C44.4616 3.9193 44.3932 3.83541 44.3281 3.74893L44.3141 3.72825C44.2045 3.53825 44.1748 3.31246 44.2315 3.10055C44.2883 2.88863 44.4268 2.70795 44.6167 2.59825ZM42.55 8.44019C42.3307 8.44019 42.1204 8.35304 41.9654 8.1979C41.8104 8.04276 41.7233 7.83235 41.7233 7.61295C41.7233 7.39356 41.8104 7.18315 41.9654 7.02801C42.1204 6.87287 42.3307 6.78572 42.55 6.78572L42.5748 6.78737C42.6818 6.80084 42.7882 6.8185 42.8939 6.84031C43.0939 6.88085 43.3427 6.94124 43.628 7.01652C44.1967 7.16707 44.8787 7.37057 45.5409 7.57573L45.6599 7.61295L45.5409 7.65018C44.8795 7.85533 44.1967 8.05883 43.628 8.20939C43.3427 8.28467 43.0939 8.34506 42.8947 8.38559C42.7891 8.4074 42.6826 8.42506 42.5756 8.43854L42.55 8.44019ZM52.5214 4.71763C52.5766 4.81353 52.612 4.91955 52.6255 5.0294C52.6391 5.13925 52.6304 5.25071 52.6001 5.35716C52.5698 5.46361 52.5185 5.56289 52.4492 5.64913C52.3798 5.73537 52.2939 5.80681 52.1965 5.85921L52.127 5.88817C52.0675 5.91298 51.9898 5.94111 51.8931 5.97337C51.7005 6.0379 51.4549 6.10987 51.1706 6.1868C50.5281 6.35731 49.8824 6.51507 49.2337 6.65998L49.1121 6.68728L49.1973 6.59545C49.6468 6.10601 50.1059 5.62557 50.5745 5.15441C50.7516 4.97603 50.9336 4.80252 51.1201 4.63408C51.2012 4.56242 51.285 4.49399 51.3715 4.42892L51.3921 4.41486C51.582 4.30516 51.8076 4.27544 52.0194 4.33222C52.2312 4.389 52.4117 4.52763 52.5214 4.71763ZM50.706 3.72825L50.6919 3.74893C50.6269 3.83513 50.5585 3.91875 50.4869 3.99958C50.3513 4.1518 50.1752 4.3371 49.9669 4.54639C49.4961 5.01557 49.016 5.47533 48.5269 5.92539L48.4351 6.00977L48.4624 5.88817C48.6071 5.2393 48.7648 4.59337 48.9352 3.95078C49.0121 3.66538 49.084 3.41969 49.1485 3.22695C49.1826 3.1243 49.2206 3.02302 49.2626 2.92335L49.2742 2.90101C49.3281 2.80618 49.4002 2.72294 49.4863 2.6561C49.5725 2.58925 49.671 2.54013 49.7762 2.51154C49.8814 2.48296 49.9913 2.47548 50.0994 2.48955C50.2075 2.50361 50.3117 2.53893 50.4062 2.59348C50.5006 2.64803 50.5833 2.72073 50.6495 2.80739C50.7157 2.89405 50.7642 2.99297 50.792 3.09844C50.8199 3.20391 50.8266 3.31386 50.8119 3.42195C50.7971 3.53004 50.7611 3.63414 50.706 3.72825ZM42.4987 10.5083C42.3891 10.3183 42.3594 10.0925 42.4161 9.88058C42.4729 9.66866 42.6114 9.48798 42.8013 9.37828L42.8236 9.3667C42.9232 9.32469 43.0244 9.28661 43.127 9.25254C43.3196 9.18801 43.5651 9.11604 43.8503 9.03911C44.4925 8.86856 45.138 8.7108 45.7864 8.56593L45.9079 8.53863L45.8236 8.63045C45.3738 9.11988 44.9144 9.60033 44.4455 10.0715C44.2364 10.28 44.0512 10.4562 43.8999 10.5918C43.8189 10.6635 43.7351 10.732 43.6486 10.797L43.628 10.8111C43.4381 10.9207 43.2124 10.9505 43.0007 10.8937C42.7889 10.8369 42.6083 10.6983 42.4987 10.5083ZM45.7459 12.3249C45.6355 12.5133 45.4551 12.6504 45.244 12.7063C45.033 12.7621 44.8084 12.7322 44.6194 12.6229C44.4303 12.5137 44.2921 12.3341 44.2349 12.1233C44.1777 11.9125 44.2062 11.6876 44.3141 11.4977L44.3281 11.477C44.3932 11.3908 44.4616 11.3072 44.5332 11.2263C44.7015 11.0394 44.8749 10.857 45.0531 10.6795C45.524 10.2103 46.0041 9.75056 46.4932 9.30052L46.585 9.21614L46.5577 9.33774C46.4129 9.98661 46.2553 10.6325 46.0848 11.2751C46.008 11.5605 45.936 11.8062 45.8716 11.999C45.8375 12.1016 45.7995 12.2029 45.7575 12.3026C45.7538 12.3101 45.75 12.3176 45.7459 12.3249ZM47.51 8.85381C47.1812 8.85381 46.8658 8.72308 46.6332 8.49037C46.4007 8.25767 46.27 7.94205 46.27 7.61295C46.27 7.28386 46.4007 6.96824 46.6332 6.73554C46.8658 6.50283 47.1812 6.3721 47.51 6.3721C47.8389 6.3721 48.1543 6.50283 48.3869 6.73554C48.6194 6.96824 48.7501 7.28386 48.7501 7.61295C48.7501 7.94205 48.6194 8.25767 48.3869 8.49037C48.1543 8.72308 47.8389 8.85381 47.51 8.85381Z" fill="#F0EBF4"/>
</g>
<path fill-rule="evenodd" clip-rule="evenodd" d="M9.26958 19.5354C9.43248 19.4313 9.64889 19.479 9.75296 19.642C10.3739 20.6143 10.7427 22.1402 10.9601 23.6041C11.1797 25.0823 11.2529 26.5562 11.2529 27.4665C11.2529 27.6599 11.0962 27.8166 10.9029 27.8166C10.7096 27.8166 10.5529 27.6599 10.5529 27.4665C10.5529 26.5856 10.4816 25.1465 10.2677 23.707C10.0517 22.2531 9.69806 20.8567 9.16307 20.019C9.059 19.856 9.10669 19.6395 9.26958 19.5354Z" fill="#F0EBF4"/>
<g clip-path="url(#clip1_11_75)">
<path d="M4.90998 10.0443C5.0302 9.77506 5.22576 9.54641 5.47302 9.38596C5.72028 9.22552 6.00868 9.14014 6.30338 9.14014C6.59808 9.14014 6.88647 9.22552 7.13374 9.38596C7.381 9.54641 7.57655 9.77506 7.69678 10.0443C7.93542 9.87098 8.21913 9.77055 8.5136 9.75515C8.80808 9.73975 9.1007 9.81005 9.3561 9.95754C9.61149 10.105 9.81872 10.3234 9.95272 10.5863C10.0867 10.8491 10.1418 11.1452 10.1112 11.4386C10.4045 11.408 10.7003 11.4631 10.963 11.5972C11.2257 11.7313 11.4439 11.9387 11.5913 12.1942C11.7387 12.4498 11.8089 12.7426 11.7935 13.0373C11.7782 13.332 11.6778 13.6159 11.5046 13.8547C11.7736 13.975 12.0021 14.1707 12.1625 14.4181C12.3228 14.6655 12.4081 14.9541 12.4081 15.249C12.4081 15.5439 12.3228 15.8325 12.1625 16.0799C12.0021 16.3274 11.7736 16.5231 11.5046 16.6434C11.6778 16.8822 11.7782 17.1661 11.7935 17.4607C11.8089 17.7554 11.7387 18.0482 11.5913 18.3038C11.4439 18.5594 11.2257 18.7667 10.963 18.9008C10.7003 19.0349 10.4045 19.09 10.1112 19.0594C10.1418 19.3529 10.0867 19.6489 9.95272 19.9118C9.81872 20.1746 9.61149 20.393 9.3561 20.5405C9.1007 20.688 8.80808 20.7583 8.5136 20.7429C8.21913 20.7275 7.93542 20.6271 7.69678 20.4537C7.57655 20.723 7.381 20.9516 7.13374 21.1121C6.88647 21.2725 6.59808 21.3579 6.30338 21.3579C6.00868 21.3579 5.72028 21.2725 5.47302 21.1121C5.22576 20.9516 5.0302 20.723 4.90998 20.4537C4.67133 20.6271 4.38762 20.7275 4.09315 20.7429C3.79868 20.7583 3.50605 20.688 3.25066 20.5405C2.99526 20.393 2.78804 20.1746 2.65403 19.9118C2.52003 19.6489 2.46499 19.3529 2.49557 19.0594C2.20228 19.09 1.90642 19.0349 1.64375 18.9008C1.38108 18.7667 1.16286 18.5594 1.01547 18.3038C0.868073 18.0482 0.797822 17.7554 0.813209 17.4607C0.828595 17.1661 0.92896 16.8822 1.10217 16.6434C0.833107 16.5231 0.604609 16.3274 0.444269 16.0799C0.28393 15.8325 0.198608 15.5439 0.198608 15.249C0.198608 14.9541 0.28393 14.6655 0.444269 14.4181C0.604609 14.1707 0.833107 13.975 1.10217 13.8547C0.92896 13.6159 0.828595 13.332 0.813209 13.0373C0.797822 12.7426 0.868073 12.4498 1.01547 12.1942C1.16286 11.9387 1.38108 11.7313 1.64375 11.5972C1.90642 11.4631 2.20228 11.408 2.49557 11.4386C2.46499 11.1452 2.52003 10.8491 2.65403 10.5863C2.78804 10.3234 2.99526 10.105 3.25066 9.95754C3.50605 9.81005 3.79868 9.73975 4.09315 9.75515C4.38762 9.77055 4.67133 9.87098 4.90998 10.0443ZM6.30338 9.9038C6.20134 9.90396 6.10037 9.92459 6.00644 9.96448C5.91251 10.0044 5.82753 10.0627 5.75653 10.136C5.68552 10.2094 5.62994 10.2962 5.59306 10.3914C5.55618 10.4866 5.53875 10.5883 5.54182 10.6903L5.54945 10.7598C5.5586 10.8186 5.57158 10.8942 5.59065 10.9858C5.62804 11.1699 5.68375 11.3997 5.75319 11.6631C5.89207 12.1885 6.07979 12.8185 6.26904 13.4301L6.30338 13.5401L6.33772 13.4301C6.52696 12.8192 6.71468 12.1885 6.85356 11.6631C6.92301 11.3997 6.97871 11.1699 7.0161 10.9858C7.03622 10.8883 7.05251 10.7899 7.06494 10.6911L7.06647 10.6674C7.06647 10.4649 6.98607 10.2707 6.84296 10.1275C6.69986 9.98425 6.50576 9.9038 6.30338 9.9038ZM1.72485 16.0126L1.74774 16.0111L1.81718 16.0035C1.89287 15.992 1.96819 15.9782 2.04305 15.9622C2.22696 15.9248 2.45665 15.8691 2.71991 15.7996C3.31187 15.6393 3.90058 15.4672 4.4857 15.2834L4.59559 15.249L4.4857 15.2147C3.90058 15.0309 3.31187 14.8588 2.71991 14.6985C2.49582 14.6381 2.27011 14.5839 2.04305 14.5358C1.94555 14.5157 1.84729 14.4994 1.7485 14.4869L1.72485 14.4854C1.52246 14.4854 1.32837 14.5659 1.18526 14.7091C1.04216 14.8523 0.961759 15.0465 0.961759 15.249C0.961759 15.4515 1.04216 15.6458 1.18526 15.789C1.32837 15.9322 1.52246 16.0126 1.72485 16.0126ZM7.06647 19.8306L7.06494 19.8077C7.05251 19.7089 7.03621 19.6106 7.0161 19.513C6.96822 19.2855 6.91402 19.0594 6.85356 18.8349C6.69334 18.2425 6.52136 17.6534 6.33772 17.0679L6.30338 16.958L6.26904 17.0679C6.07979 17.6788 5.89207 18.3095 5.75319 18.8349C5.68375 19.0983 5.62804 19.3282 5.59065 19.5122C5.57053 19.6098 5.55424 19.7081 5.54182 19.807L5.54029 19.8306C5.54029 20.0332 5.62069 20.2274 5.76379 20.3706C5.9069 20.5138 6.10099 20.5942 6.30338 20.5942C6.50576 20.5942 6.69986 20.5138 6.84296 20.3706C6.98607 20.2274 7.06647 20.0332 7.06647 19.8306ZM2.71991 18.2011L2.73899 18.1881C2.8185 18.1281 2.89564 18.0649 2.97021 17.9988C3.11062 17.8735 3.28155 17.7109 3.47461 17.5185C3.9074 17.0835 4.33151 16.64 4.74668 16.1883L4.82528 16.1035L4.7131 16.1287C4.11431 16.2625 3.51822 16.4081 2.92518 16.5655C2.66268 16.6365 2.43681 16.7029 2.25825 16.7625C2.16357 16.794 2.07015 16.8291 1.97819 16.8679L1.95759 16.8786C1.8701 16.9283 1.79332 16.9949 1.73166 17.0745C1.67 17.1541 1.62469 17.2451 1.59832 17.3423C1.57195 17.4395 1.56506 17.5409 1.57803 17.6408C1.591 17.7407 1.62358 17.837 1.6739 17.9242C1.72422 18.0114 1.79128 18.0878 1.87122 18.1489C1.95117 18.2101 2.04241 18.2549 2.1397 18.2806C2.237 18.3063 2.33842 18.3126 2.43812 18.2989C2.53783 18.2853 2.63386 18.252 2.72068 18.2011H2.71991ZM3.63257 19.878C3.80783 19.9792 4.01612 20.0067 4.2116 19.9543C4.40708 19.9019 4.57375 19.7739 4.67495 19.5985L4.68563 19.5779C4.69326 19.5626 4.70165 19.5412 4.7131 19.5137C4.74117 19.4425 4.76712 19.3704 4.79094 19.2976C4.85046 19.1197 4.91685 18.8929 4.98781 18.6303C5.14515 18.0368 5.29068 17.4403 5.4243 16.8411L5.44948 16.7289L5.36554 16.8068C4.91383 17.2222 4.47039 17.6466 4.03548 18.0797C3.87103 18.2434 3.71098 18.4114 3.5555 18.5837C3.48944 18.6586 3.42631 18.736 3.36625 18.8158L3.35328 18.8349C3.25209 19.0103 3.22467 19.2187 3.27705 19.4143C3.32942 19.6099 3.45731 19.7767 3.63257 19.878ZM10.6499 13.6195C10.8238 13.5175 10.9502 13.3509 11.0017 13.1559C11.0532 12.961 11.0256 12.7536 10.9249 12.5789C10.8241 12.4043 10.6584 12.2767 10.4639 12.2238C10.2695 12.171 10.062 12.1973 9.88684 12.2969L9.86776 12.3099C9.78823 12.37 9.71109 12.4331 9.63655 12.4993C9.46407 12.6548 9.29587 12.8149 9.13215 12.9796C8.69937 13.4145 8.27526 13.858 7.86008 14.3098L7.78224 14.3946L7.89442 14.3694C8.49297 14.2356 9.08881 14.09 9.68157 13.9326C9.94484 13.8616 10.1715 13.7951 10.3493 13.7356C10.444 13.7041 10.5374 13.669 10.6293 13.6302C10.6363 13.6268 10.6432 13.6233 10.6499 13.6195ZM8.97419 10.6201C8.79892 10.5188 8.59064 10.4914 8.39516 10.5438C8.19967 10.5962 8.033 10.7242 7.93181 10.8995L7.92112 10.9202C7.91349 10.9354 7.9051 10.9568 7.89365 10.9843C7.86559 11.0555 7.83963 11.1276 7.81582 11.2004C7.7563 11.3783 7.68991 11.6051 7.61894 11.8686C7.46161 12.4617 7.31609 13.058 7.18246 13.6569L7.15727 13.7692L7.24121 13.6913C7.69293 13.2758 8.13637 12.8514 8.57128 12.4183C8.76357 12.2252 8.92611 12.0541 9.05126 11.9144C9.11735 11.8395 9.18048 11.7621 9.24051 11.6822L9.25348 11.6631C9.35466 11.4878 9.38209 11.2793 9.32971 11.0837C9.27733 10.8881 9.14945 10.7213 8.97419 10.6201ZM10.8819 16.0126C11.0843 16.0126 11.2784 15.9322 11.4215 15.789C11.5646 15.6458 11.645 15.4515 11.645 15.249C11.645 15.0465 11.5646 14.8523 11.4215 14.7091C11.2784 14.5659 11.0843 14.4854 10.8819 14.4854L10.859 14.4869C10.7602 14.4994 10.662 14.5157 10.5645 14.5358C10.3798 14.5732 10.1501 14.629 9.88684 14.6985C9.36184 14.8374 8.73229 15.0253 8.12105 15.2147L8.01117 15.249L8.12105 15.2834C8.73152 15.4728 9.36184 15.6606 9.88684 15.7996C10.1501 15.8691 10.3798 15.9248 10.5637 15.9622C10.6612 15.9824 10.7595 15.9987 10.8583 16.0111L10.8819 16.0126ZM1.67754 12.5764C1.62657 12.6649 1.59387 12.7628 1.58138 12.8642C1.56889 12.9656 1.57687 13.0685 1.60483 13.1667C1.6328 13.265 1.68018 13.3567 1.74418 13.4363C1.80819 13.5159 1.8875 13.5818 1.97743 13.6302L2.04153 13.6569C2.09647 13.6798 2.1682 13.7058 2.25748 13.7356C2.43528 13.7951 2.66192 13.8616 2.92442 13.9326C3.51745 14.09 4.11354 14.2356 4.71234 14.3694L4.82451 14.3946L4.74591 14.3098C4.331 13.858 3.90715 13.4145 3.47461 12.9796C3.31113 12.8149 3.14319 12.6548 2.97097 12.4993C2.89615 12.4331 2.81877 12.37 2.73899 12.3099L2.71991 12.2969C2.54465 12.1957 2.33637 12.1682 2.14088 12.2207C1.9454 12.2731 1.77873 12.401 1.67754 12.5764ZM3.35328 11.6631L3.36625 11.6822C3.42629 11.7618 3.48942 11.839 3.5555 11.9136C3.68064 12.0541 3.84318 12.2252 4.03548 12.4183C4.4701 12.8514 4.91329 13.2758 5.36478 13.6913L5.44948 13.7692L5.4243 13.6569C5.29067 13.058 5.14514 12.4617 4.98781 11.8686C4.91685 11.6051 4.85046 11.3783 4.79094 11.2004C4.7595 11.1056 4.72438 11.0122 4.68563 10.9202L4.67495 10.8995C4.62521 10.812 4.55865 10.7352 4.47912 10.6735C4.39958 10.6118 4.30864 10.5664 4.21152 10.54C4.1144 10.5136 4.01302 10.5067 3.91322 10.5197C3.81343 10.5327 3.71718 10.5653 3.63003 10.6157C3.54288 10.666 3.46654 10.7331 3.40541 10.8131C3.34428 10.8931 3.29956 10.9844 3.27384 11.0818C3.24812 11.1791 3.24189 11.2806 3.25553 11.3804C3.26916 11.4802 3.30238 11.5763 3.35328 11.6631ZM10.9292 17.9216C11.0304 17.7463 11.0578 17.5378 11.0055 17.3422C10.9531 17.1466 10.8252 16.9798 10.6499 16.8786L10.6293 16.8679C10.5374 16.8291 10.444 16.7939 10.3493 16.7625C10.1715 16.7029 9.94484 16.6365 9.68157 16.5655C9.0888 16.408 8.49297 16.2624 7.89442 16.1287L7.78224 16.1035L7.86008 16.1883C8.27526 16.64 8.69937 17.0835 9.13215 17.5185C9.32521 17.7109 9.49614 17.8735 9.63578 17.9988C9.71058 18.0649 9.78796 18.1281 9.86776 18.1881L9.88684 18.2011C10.0621 18.3024 10.2704 18.3298 10.4659 18.2774C10.6614 18.225 10.828 18.097 10.9292 17.9216ZM7.93181 19.5985C8.03372 19.7725 8.20025 19.899 8.39506 19.9506C8.58988 20.0021 8.79716 19.9744 8.97166 19.8736C9.14617 19.7728 9.27375 19.607 9.32654 19.4124C9.37934 19.2178 9.35307 19.0102 9.25348 18.8349L9.24051 18.8158C9.18043 18.7363 9.1173 18.6591 9.05126 18.5844C8.89589 18.4119 8.73583 18.2435 8.57128 18.0797C8.13668 17.6466 7.69349 17.2222 7.24198 16.8068L7.15727 16.7289L7.18246 16.8411C7.31609 17.4401 7.46161 18.0363 7.61894 18.6295C7.68991 18.8929 7.7563 19.1197 7.81582 19.2976C7.84723 19.3924 7.88236 19.4859 7.92112 19.5779C7.9245 19.5849 7.92807 19.5917 7.93181 19.5985ZM6.30338 16.3944C6.60695 16.3944 6.89809 16.2738 7.11276 16.0589C7.32742 15.8441 7.44801 15.5528 7.44801 15.249C7.44801 14.9452 7.32742 14.6539 7.11276 14.4391C6.89809 14.2243 6.60695 14.1036 6.30338 14.1036C5.9998 14.1036 5.70866 14.2243 5.494 14.4391C5.27934 14.6539 5.15874 14.9452 5.15874 15.249C5.15874 15.5528 5.27934 15.8441 5.494 16.0589C5.70866 16.2738 5.9998 16.3944 6.30338 16.3944Z" fill="#F0EBF4"/>
</g>
<g clip-path="url(#clip2_11_75)">
<path d="M25.5283 11.9607C25.6485 11.6915 25.844 11.4629 26.0913 11.3024C26.3386 11.142 26.627 11.0566 26.9217 11.0566C27.2164 11.0566 27.5048 11.142 27.752 11.3024C27.9993 11.4629 28.1948 11.6915 28.3151 11.9607C28.5537 11.7874 28.8374 11.687 29.1319 11.6716C29.4264 11.6562 29.719 11.7265 29.9744 11.874C30.2298 12.0215 30.437 12.2399 30.571 12.5027C30.705 12.7655 30.7601 13.0616 30.7295 13.3551C31.0228 13.3245 31.3186 13.3796 31.5813 13.5137C31.844 13.6478 32.0622 13.8551 32.2096 14.1107C32.357 14.3663 32.4272 14.6591 32.4118 14.9537C32.3964 15.2484 32.2961 15.5323 32.1229 15.7711C32.3919 15.8914 32.6204 16.0871 32.7808 16.3345C32.9411 16.582 33.0264 16.8706 33.0264 17.1655C33.0264 17.4604 32.9411 17.749 32.7808 17.9964C32.6204 18.2438 32.3919 18.4395 32.1229 18.5598C32.2961 18.7986 32.3964 19.0825 32.4118 19.3772C32.4272 19.6719 32.357 19.9647 32.2096 20.2202C32.0622 20.4758 31.844 20.6832 31.5813 20.8173C31.3186 20.9514 31.0228 21.0064 30.7295 20.9758C30.7601 21.2693 30.705 21.5654 30.571 21.8282C30.437 22.0911 30.2298 22.3095 29.9744 22.4569C29.719 22.6044 29.4264 22.6747 29.1319 22.6593C28.8374 22.6439 28.5537 22.5435 28.3151 22.3702C28.1948 22.6394 27.9993 22.8681 27.752 23.0285C27.5048 23.189 27.2164 23.2744 26.9217 23.2744C26.627 23.2744 26.3386 23.189 26.0913 23.0285C25.844 22.8681 25.6485 22.6394 25.5283 22.3702C25.2896 22.5435 25.0059 22.6439 24.7114 22.6593C24.417 22.6747 24.1243 22.6044 23.8689 22.4569C23.6135 22.3095 23.4063 22.0911 23.2723 21.8282C23.1383 21.5654 23.0833 21.2693 23.1139 20.9758C22.8206 21.0064 22.5247 20.9514 22.262 20.8173C21.9994 20.6832 21.7811 20.4758 21.6338 20.2202C21.4864 19.9647 21.4161 19.6719 21.4315 19.3772C21.4469 19.0825 21.5472 18.7986 21.7205 18.5598C21.4514 18.4395 21.2229 18.2438 21.0626 17.9964C20.9022 17.749 20.8169 17.4604 20.8169 17.1655C20.8169 16.8706 20.9022 16.582 21.0626 16.3345C21.2229 16.0871 21.4514 15.8914 21.7205 15.7711C21.5472 15.5323 21.4469 15.2484 21.4315 14.9537C21.4161 14.6591 21.4864 14.3663 21.6338 14.1107C21.7811 13.8551 21.9994 13.6478 22.262 13.5137C22.5247 13.3796 22.8206 13.3245 23.1139 13.3551C23.0833 13.0616 23.1383 12.7655 23.2723 12.5027C23.4063 12.2399 23.6135 12.0215 23.8689 11.874C24.1243 11.7265 24.417 11.6562 24.7114 11.6716C25.0059 11.687 25.2896 11.7874 25.5283 11.9607ZM26.9217 11.8202C26.8196 11.8204 26.7187 11.841 26.6247 11.8809C26.5308 11.9208 26.4458 11.9792 26.3748 12.0525C26.3038 12.1258 26.2482 12.2126 26.2113 12.3079C26.1745 12.4031 26.157 12.5047 26.1601 12.6068L26.1677 12.6762C26.1769 12.735 26.1899 12.8106 26.2089 12.9023C26.2463 13.0863 26.302 13.3161 26.3715 13.5796C26.5104 14.1049 26.6981 14.7349 26.8873 15.3466L26.9217 15.4565L26.956 15.3466C27.1452 14.7357 27.333 14.1049 27.4718 13.5796C27.5413 13.3161 27.597 13.0863 27.6344 12.9023C27.6545 12.8047 27.6708 12.7064 27.6832 12.6075L27.6848 12.5838C27.6848 12.3813 27.6044 12.1871 27.4612 12.0439C27.3181 11.9007 27.124 11.8202 26.9217 11.8202ZM22.3431 17.9291L22.366 17.9275L22.4355 17.9199C22.5112 17.9084 22.5865 17.8947 22.6613 17.8787C22.8452 17.8413 23.0749 17.7855 23.3382 17.716C23.9302 17.5557 24.5189 17.3836 25.104 17.1998L25.2139 17.1655L25.104 17.1311C24.5189 16.9473 23.9302 16.7752 23.3382 16.6149C23.1141 16.5545 22.8884 16.5003 22.6613 16.4523C22.5638 16.4321 22.4656 16.4158 22.3668 16.4034L22.3431 16.4019C22.1407 16.4019 21.9467 16.4823 21.8035 16.6255C21.6604 16.7687 21.58 16.9629 21.58 17.1655C21.58 17.368 21.6604 17.5622 21.8035 17.7054C21.9467 17.8486 22.1407 17.9291 22.3431 17.9291ZM27.6848 21.7471L27.6832 21.7242C27.6708 21.6253 27.6545 21.527 27.6344 21.4294C27.5865 21.2019 27.5323 20.9758 27.4718 20.7513C27.3116 20.159 27.1396 19.5699 26.956 18.9844L26.9217 18.8744L26.8873 18.9844C26.6981 19.5953 26.5104 20.226 26.3715 20.7513C26.302 21.0148 26.2463 21.2446 26.2089 21.4287C26.1888 21.5262 26.1725 21.6246 26.1601 21.7234L26.1586 21.7471C26.1586 21.9496 26.239 22.1438 26.3821 22.287C26.5252 22.4302 26.7193 22.5107 26.9217 22.5107C27.124 22.5107 27.3181 22.4302 27.4612 22.287C27.6044 22.1438 27.6848 21.9496 27.6848 21.7471ZM23.3382 20.1176L23.3573 20.1046C23.4368 20.0445 23.5139 19.9813 23.5885 19.9152C23.7289 19.79 23.8998 19.6273 24.0929 19.4349C24.5257 19 24.9498 18.5565 25.365 18.1047L25.4436 18.0199L25.3314 18.0451C24.7326 18.1789 24.1365 18.3245 23.5435 18.4819C23.281 18.5529 23.0551 18.6194 22.8765 18.6789C22.7819 18.7104 22.6884 18.7456 22.5965 18.7843L22.5759 18.795C22.4884 18.8448 22.4116 18.9114 22.3499 18.991C22.2883 19.0705 22.243 19.1616 22.2166 19.2587C22.1902 19.3559 22.1833 19.4574 22.1963 19.5572C22.2093 19.6571 22.2419 19.7534 22.2922 19.8406C22.3425 19.9278 22.4096 20.0042 22.4895 20.0654C22.5695 20.1266 22.6607 20.1713 22.758 20.197C22.8553 20.2228 22.9567 20.229 23.0564 20.2154C23.1561 20.2017 23.2521 20.1685 23.339 20.1176H23.3382ZM24.2509 21.7944C24.4261 21.8957 24.6344 21.9231 24.8299 21.8707C25.0254 21.8183 25.192 21.6903 25.2932 21.5149L25.3039 21.4943C25.3115 21.4791 25.3199 21.4577 25.3314 21.4302C25.3595 21.3589 25.3854 21.2869 25.4092 21.2141C25.4687 21.0362 25.5351 20.8094 25.6061 20.5467C25.7634 19.9533 25.909 19.3568 26.0426 18.7576L26.0678 18.6453L25.9838 18.7232C25.5321 19.1387 25.0887 19.5631 24.6538 19.9961C24.4893 20.1598 24.3293 20.3279 24.1738 20.5001C24.1077 20.575 24.0446 20.6525 23.9845 20.7323L23.9716 20.7513C23.8704 20.9267 23.843 21.1352 23.8953 21.3308C23.9477 21.5264 24.0756 21.6932 24.2509 21.7944ZM31.2682 15.5359C31.4421 15.434 31.5685 15.2673 31.62 15.0724C31.6715 14.8774 31.6439 14.67 31.5431 14.4954C31.4424 14.3208 31.2767 14.1931 31.0822 14.1403C30.8878 14.0874 30.6803 14.1137 30.5051 14.2134L30.486 14.2264C30.4065 14.2864 30.3294 14.3496 30.2548 14.4157C30.0824 14.5712 29.9142 14.7314 29.7504 14.896C29.3177 15.331 28.8935 15.7745 28.4784 16.2262L28.4005 16.311L28.5127 16.2858C29.1113 16.1521 29.7071 16.0065 30.2999 15.849C30.5631 15.778 30.7898 15.7116 30.9676 15.652C31.0623 15.6206 31.1557 15.5854 31.2476 15.5466C31.2546 15.5433 31.2615 15.5397 31.2682 15.5359ZM29.5925 12.5365C29.4172 12.4352 29.2089 12.4078 29.0134 12.4602C28.818 12.5126 28.6513 12.6406 28.5501 12.816L28.5394 12.8366C28.5318 12.8519 28.5234 12.8733 28.5119 12.9007C28.4839 12.972 28.4579 13.0441 28.4341 13.1168C28.3746 13.2948 28.3082 13.5216 28.2372 13.785C28.0799 14.3782 27.9344 14.9744 27.8007 15.5734L27.7756 15.6856L27.8595 15.6077C28.3112 15.1922 28.7547 14.7678 29.1896 14.3348C29.3819 14.1416 29.5444 13.9706 29.6695 13.8308C29.7356 13.7559 29.7988 13.6785 29.8588 13.5987L29.8718 13.5796C29.973 13.4042 30.0004 13.1958 29.948 13.0002C29.8956 12.8046 29.7677 12.6378 29.5925 12.5365ZM31.5002 17.9291C31.7026 17.9291 31.8967 17.8486 32.0398 17.7054C32.1829 17.5622 32.2633 17.368 32.2633 17.1655C32.2633 16.9629 32.1829 16.7687 32.0398 16.6255C31.8967 16.4823 31.7026 16.4019 31.5002 16.4019L31.4773 16.4034C31.3785 16.4158 31.2803 16.4321 31.1827 16.4523C30.9981 16.4897 30.7684 16.5454 30.5051 16.6149C29.9801 16.7539 29.3506 16.9417 28.7393 17.1311L28.6295 17.1655L28.7393 17.1998C29.3498 17.3892 29.9801 17.577 30.5051 17.716C30.7684 17.7855 30.9981 17.8413 31.182 17.8787C31.2795 17.8988 31.3778 17.9151 31.4765 17.9275L31.5002 17.9291ZM22.2958 14.4929C22.2449 14.5814 22.2122 14.6792 22.1997 14.7806C22.1872 14.8821 22.1952 14.9849 22.2231 15.0832C22.2511 15.1815 22.2985 15.2731 22.3625 15.3527C22.4265 15.4323 22.5058 15.4983 22.5957 15.5466L22.6598 15.5734C22.7148 15.5963 22.7865 15.6222 22.8758 15.652C23.0536 15.7116 23.2802 15.778 23.5427 15.849C24.1357 16.0064 24.7318 16.152 25.3306 16.2858L25.4428 16.311L25.3642 16.2262C24.9493 15.7744 24.5254 15.331 24.0929 14.896C23.9294 14.7314 23.7615 14.5712 23.5893 14.4157C23.5144 14.3496 23.4371 14.2864 23.3573 14.2264L23.3382 14.2134C23.1629 14.1121 22.9547 14.0847 22.7592 14.1371C22.5637 14.1895 22.397 14.3175 22.2958 14.4929ZM23.9716 13.5796L23.9845 13.5987C24.0446 13.6782 24.1077 13.7554 24.1738 13.83C24.2989 13.9706 24.4615 14.1416 24.6538 14.3348C25.0884 14.7679 25.5316 15.1923 25.9831 15.6077L26.0678 15.6856L26.0426 15.5734C25.909 14.9744 25.7634 14.3782 25.6061 13.785C25.5351 13.5216 25.4687 13.2948 25.4092 13.1168C25.3778 13.0221 25.3427 12.9286 25.3039 12.8366L25.2932 12.816C25.2435 12.7284 25.1769 12.6516 25.0974 12.5899C25.0179 12.5282 24.9269 12.4829 24.8298 12.4565C24.7327 12.4301 24.6313 12.4232 24.5315 12.4362C24.4317 12.4491 24.3355 12.4817 24.2483 12.5321C24.1612 12.5825 24.0848 12.6496 24.0237 12.7296C23.9626 12.8096 23.9179 12.9009 23.8921 12.9982C23.8664 13.0956 23.8602 13.1971 23.8738 13.2968C23.8874 13.3966 23.9207 13.4927 23.9716 13.5796ZM31.5475 19.8381C31.6487 19.6627 31.6761 19.4543 31.6237 19.2587C31.5714 19.063 31.4435 18.8963 31.2682 18.795L31.2476 18.7843C31.1557 18.7455 31.0623 18.7104 30.9676 18.6789C30.7898 18.6194 30.5631 18.5529 30.2999 18.4819C29.7071 18.3245 29.1113 18.1789 28.5127 18.0451L28.4005 18.0199L28.4784 18.1047C28.8935 18.5565 29.3177 19 29.7504 19.4349C29.9435 19.6273 30.1144 19.79 30.2541 19.9152C30.3289 19.9814 30.4062 20.0445 30.486 20.1046L30.5051 20.1176C30.6804 20.2188 30.8887 20.2463 31.0842 20.1938C31.2796 20.1414 31.4463 20.0135 31.5475 19.8381ZM28.5501 21.5149C28.652 21.6889 28.8185 21.8155 29.0134 21.867C29.2082 21.9185 29.4154 21.8909 29.59 21.7901C29.7645 21.6892 29.892 21.5234 29.9448 21.3288C29.9976 21.1342 29.9714 20.9266 29.8718 20.7513L29.8588 20.7323C29.7987 20.6527 29.7356 20.5755 29.6695 20.5009C29.5142 20.3283 29.3541 20.16 29.1896 19.9961C28.755 19.563 28.3118 19.1386 27.8603 18.7232L27.7756 18.6453L27.8007 18.7576C27.9344 19.3565 28.0799 19.9528 28.2372 20.5459C28.3082 20.8094 28.3746 21.0362 28.4341 21.2141C28.4655 21.3088 28.5006 21.4023 28.5394 21.4943C28.5428 21.5013 28.5464 21.5082 28.5501 21.5149ZM26.9217 18.3109C27.2252 18.3109 27.5164 18.1902 27.731 17.9754C27.9457 17.7606 28.0663 17.4692 28.0663 17.1655C28.0663 16.8617 27.9457 16.5703 27.731 16.3555C27.5164 16.1407 27.2252 16.0201 26.9217 16.0201C26.6181 16.0201 26.3269 16.1407 26.1123 16.3555C25.8976 16.5703 25.777 16.8617 25.777 17.1655C25.777 17.4692 25.8976 17.7606 26.1123 17.9754C26.3269 18.1902 26.6181 18.3109 26.9217 18.3109Z" fill="#F0EBF4"/>
</g>
<path fill-rule="evenodd" clip-rule="evenodd" d="M33.963 15.6766C33.7824 15.6075 33.5801 15.698 33.5111 15.8786C32.9739 17.2844 32.6476 19.5171 32.4533 21.7026C32.258 23.8997 32.1929 26.0921 32.1929 27.4424C32.1929 27.6358 32.3496 27.7925 32.5429 27.7925C32.7362 27.7925 32.8929 27.6358 32.8929 27.4424C32.8929 26.1095 32.9573 23.9382 33.1505 21.7646C33.3448 19.5793 33.666 17.4343 34.1649 16.1286C34.234 15.948 34.1435 15.7456 33.963 15.6766Z" fill="#F0EBF4"/>
<g clip-path="url(#clip3_11_75)">
<path d="M38.406 7.61441C38.2912 7.38754 38.1045 7.19488 37.8685 7.05968C37.6324 6.92448 37.3571 6.85254 37.0757 6.85254C36.7944 6.85254 36.5191 6.92448 36.283 7.05968C36.047 7.19488 35.8603 7.38754 35.7455 7.61441C35.5177 7.46837 35.2468 7.38374 34.9657 7.37077C34.6846 7.35779 34.4052 7.41703 34.1614 7.54131C33.9176 7.66559 33.7197 7.84959 33.5918 8.07107C33.4639 8.29255 33.4113 8.54202 33.4405 8.78932C33.1605 8.76354 32.8781 8.80995 32.6273 8.92294C32.3765 9.03593 32.1682 9.21066 32.0275 9.42601C31.8868 9.64135 31.8197 9.88809 31.8344 10.1364C31.8491 10.3847 31.9449 10.6239 32.1103 10.8251C31.8534 10.9265 31.6353 11.0914 31.4822 11.2999C31.3291 11.5084 31.2477 11.7516 31.2477 12C31.2477 12.2485 31.3291 12.4917 31.4822 12.7002C31.6353 12.9087 31.8534 13.0736 32.1103 13.1749C31.9449 13.3762 31.8491 13.6154 31.8344 13.8637C31.8197 14.112 31.8868 14.3587 32.0275 14.5741C32.1682 14.7894 32.3765 14.9642 32.6273 15.0771C32.8781 15.1901 33.1605 15.2365 33.4405 15.2108C33.4113 15.4581 33.4639 15.7075 33.5918 15.929C33.7197 16.1505 33.9176 16.3345 34.1614 16.4588C34.4052 16.5831 34.6846 16.6423 34.9657 16.6293C35.2468 16.6163 35.5177 16.5317 35.7455 16.3857C35.8603 16.6125 36.047 16.8052 36.283 16.9404C36.5191 17.0756 36.7944 17.1475 37.0757 17.1475C37.3571 17.1475 37.6324 17.0756 37.8685 16.9404C38.1045 16.8052 38.2912 16.6125 38.406 16.3857C38.6338 16.5317 38.9047 16.6163 39.1858 16.6293C39.4669 16.6423 39.7463 16.5831 39.9901 16.4588C40.2339 16.3345 40.4317 16.1505 40.5597 15.929C40.6876 15.7075 40.7402 15.4581 40.711 15.2108C40.991 15.2365 41.2734 15.1901 41.5242 15.0771C41.7749 14.9642 41.9833 14.7894 42.124 14.5741C42.2647 14.3587 42.3318 14.112 42.3171 13.8637C42.3024 13.6154 42.2066 13.3762 42.0412 13.1749C42.2981 13.0736 42.5162 12.9087 42.6693 12.7002C42.8224 12.4917 42.9038 12.2485 42.9038 12C42.9038 11.7516 42.8224 11.5084 42.6693 11.2999C42.5162 11.0914 42.2981 10.9265 42.0412 10.8251C42.2066 10.6239 42.3024 10.3847 42.3171 10.1364C42.3318 9.88809 42.2647 9.64135 42.124 9.42601C41.9833 9.21066 41.7749 9.03593 41.5242 8.92294C41.2734 8.80995 40.991 8.76354 40.711 8.78932C40.7402 8.54202 40.6876 8.29255 40.5597 8.07107C40.4317 7.84959 40.2339 7.66559 39.9901 7.54131C39.7463 7.41703 39.4669 7.35779 39.1858 7.37077C38.9047 7.38374 38.6338 7.46837 38.406 7.61441ZM37.0757 7.49602C37.1732 7.49616 37.2695 7.51354 37.3592 7.54716C37.4489 7.58077 37.53 7.62992 37.5978 7.69171C37.6656 7.7535 37.7187 7.82667 37.7539 7.90689C37.7891 7.98711 37.8057 8.07276 37.8028 8.15876L37.7955 8.21731C37.7868 8.26685 37.7744 8.33055 37.7562 8.40776C37.7205 8.56283 37.6673 8.7565 37.601 8.97849C37.4684 9.42117 37.2892 9.952 37.1085 10.4674L37.0757 10.56L37.043 10.4674C36.8623 9.95264 36.6831 9.42117 36.5505 8.97849C36.4842 8.7565 36.431 8.56283 36.3953 8.40776C36.3761 8.32555 36.3606 8.24269 36.3487 8.1594L36.3472 8.13945C36.3472 7.9688 36.424 7.80515 36.5606 7.68448C36.6972 7.56381 36.8825 7.49602 37.0757 7.49602ZM41.4467 12.6435L41.4249 12.6422L41.3586 12.6357C41.2863 12.6261 41.2144 12.6145 41.143 12.601C40.9674 12.5695 40.7481 12.5225 40.4968 12.464C39.9317 12.3289 39.3696 12.1838 38.811 12.029L38.7061 12L38.811 11.9711C39.3696 11.8162 39.9317 11.6712 40.4968 11.5361C40.7107 11.4853 40.9262 11.4396 41.143 11.3991C41.2361 11.3821 41.3299 11.3684 41.4242 11.3579L41.4467 11.3566C41.64 11.3566 41.8253 11.4244 41.9619 11.5451C42.0985 11.6657 42.1752 11.8294 42.1752 12C42.1752 12.1707 42.0985 12.3343 41.9619 12.455C41.8253 12.5757 41.64 12.6435 41.4467 12.6435ZM36.3472 15.8606L36.3487 15.8413C36.3606 15.758 36.3761 15.6752 36.3953 15.593C36.441 15.4013 36.4928 15.2107 36.5505 15.0216C36.7034 14.5225 36.8676 14.0261 37.043 13.5327L37.0757 13.44L37.1085 13.5327C37.2892 14.0474 37.4684 14.5789 37.601 15.0216C37.6673 15.2436 37.7205 15.4372 37.7562 15.5923C37.7754 15.6745 37.7909 15.7574 37.8028 15.8407L37.8042 15.8606C37.8042 16.0313 37.7275 16.1949 37.5909 16.3156C37.4542 16.4363 37.2689 16.5041 37.0757 16.5041C36.8825 16.5041 36.6972 16.4363 36.5606 16.3156C36.424 16.1949 36.3472 16.0313 36.3472 15.8606ZM40.4968 14.4875L40.4786 14.4766C40.4027 14.426 40.329 14.3727 40.2578 14.317C40.1238 14.2115 39.9606 14.0745 39.7763 13.9123C39.3631 13.5458 38.9582 13.1722 38.5619 12.7915L38.4868 12.72L38.5939 12.7413C39.1656 12.854 39.7347 12.9767 40.3008 13.1093C40.5514 13.1692 40.7671 13.2251 40.9375 13.2753C41.0279 13.3019 41.1171 13.3315 41.2049 13.3641L41.2246 13.3731C41.3081 13.4151 41.3814 13.4712 41.4402 13.5382C41.4991 13.6053 41.5424 13.682 41.5675 13.7639C41.5927 13.8458 41.5993 13.9313 41.5869 14.0154C41.5745 14.0995 41.5434 14.1807 41.4954 14.2542C41.4473 14.3277 41.3833 14.392 41.307 14.4436C41.2307 14.4951 41.1436 14.5328 41.0507 14.5545C40.9578 14.5762 40.861 14.5815 40.7658 14.57C40.6706 14.5585 40.5789 14.5305 40.4961 14.4875H40.4968ZM39.6255 15.9005C39.4582 15.9858 39.2593 16.009 39.0727 15.9648C38.8861 15.9206 38.727 15.8128 38.6304 15.665L38.6202 15.6477C38.6129 15.6348 38.6049 15.6168 38.5939 15.5936C38.5671 15.5336 38.5424 15.4728 38.5196 15.4115C38.4628 15.2616 38.3994 15.0705 38.3317 14.8492C38.1815 14.3491 38.0425 13.8465 37.915 13.3416L37.8909 13.247L37.9711 13.3126C38.4023 13.6627 38.8257 14.0203 39.2408 14.3852C39.3978 14.5232 39.5506 14.6648 39.6991 14.8099C39.7621 14.873 39.8224 14.9383 39.8797 15.0055L39.8921 15.0216C39.9887 15.1694 40.0149 15.345 39.9649 15.5098C39.9149 15.6747 39.7928 15.8152 39.6255 15.9005ZM32.9262 10.627C32.7602 10.541 32.6395 10.4006 32.5903 10.2363C32.5412 10.0721 32.5675 9.8973 32.6637 9.75016C32.7599 9.60301 32.9181 9.49545 33.1038 9.45093C33.2894 9.40641 33.4875 9.42856 33.6547 9.51254L33.6729 9.52347C33.7488 9.57407 33.8225 9.6273 33.8936 9.68304C34.0583 9.81405 34.2189 9.94901 34.3752 10.0878C34.7883 10.4542 35.1932 10.8279 35.5896 11.2086L35.6639 11.28L35.5568 11.2588C34.9854 11.1461 34.4166 11.0234 33.8507 10.8908C33.5993 10.8309 33.383 10.7749 33.2132 10.7248C33.1228 10.6983 33.0336 10.6686 32.9459 10.636C32.9392 10.6331 32.9327 10.6301 32.9262 10.627ZM34.526 8.09956C34.6933 8.01424 34.8921 7.99112 35.0788 8.03528C35.2654 8.07945 35.4245 8.18728 35.5211 8.33506L35.5313 8.35243C35.5386 8.3653 35.5466 8.38331 35.5575 8.40648C35.5843 8.46651 35.6091 8.52724 35.6318 8.58857C35.6887 8.73849 35.7521 8.92959 35.8198 9.15157C35.97 9.65139 36.1089 10.1538 36.2365 10.6585L36.2605 10.7531L36.1804 10.6874C35.7492 10.3374 35.3258 9.97975 34.9106 9.61484C34.7271 9.45205 34.5719 9.30792 34.4524 9.19018C34.3893 9.12709 34.329 9.06184 34.2717 8.99457L34.2594 8.97849C34.1628 8.8307 34.1366 8.65508 34.1866 8.49025C34.2366 8.32542 34.3587 8.18489 34.526 8.09956ZM32.7047 12.6435C32.5115 12.6435 32.3262 12.5757 32.1896 12.455C32.053 12.3343 31.9762 12.1707 31.9762 12C31.9762 11.8294 32.053 11.6657 32.1896 11.5451C32.3262 11.4244 32.5115 11.3566 32.7047 11.3566L32.7266 11.3579C32.8209 11.3684 32.9147 11.3821 33.0078 11.3991C33.1841 11.4306 33.4034 11.4776 33.6547 11.5361C34.1559 11.6532 34.7569 11.8115 35.3404 11.9711L35.4454 12L35.3404 12.029C34.7576 12.1886 34.1559 12.3468 33.6547 12.464C33.4034 12.5225 33.1841 12.5695 33.0085 12.601C32.9154 12.618 32.8216 12.6317 32.7273 12.6422L32.7047 12.6435ZM41.4919 9.74803C41.5406 9.82263 41.5718 9.90509 41.5837 9.99053C41.5956 10.076 41.588 10.1627 41.5613 10.2455C41.5346 10.3283 41.4894 10.4055 41.4283 10.4726C41.3672 10.5396 41.2915 10.5952 41.2056 10.636L41.1444 10.6585C41.092 10.6778 41.0235 10.6997 40.9383 10.7248C40.7685 10.7749 40.5521 10.8309 40.3015 10.8908C39.7354 11.0234 39.1663 11.1461 38.5947 11.2588L38.4876 11.28L38.5626 11.2086C38.9587 10.8279 39.3634 10.4542 39.7763 10.0878C39.9324 9.94902 40.0927 9.81406 40.2571 9.68304C40.3285 9.62731 40.4024 9.57408 40.4786 9.52347L40.4968 9.51254C40.6641 9.42721 40.8629 9.40409 41.0496 9.44826C41.2362 9.49242 41.3953 9.60025 41.4919 9.74803ZM39.8921 8.97849L39.8797 8.99457C39.8224 9.06162 39.7622 9.12666 39.6991 9.18953C39.5796 9.30792 39.4244 9.45205 39.2408 9.61484C38.8259 9.97977 38.4028 10.3374 37.9718 10.6874L37.8909 10.7531L37.915 10.6585C38.0425 10.1538 38.1815 9.65139 38.3317 9.15157C38.3994 8.92959 38.4628 8.73849 38.5196 8.58857C38.5496 8.50873 38.5832 8.42995 38.6202 8.35243L38.6304 8.33506C38.6778 8.26129 38.7414 8.19655 38.8173 8.14456C38.8932 8.09257 38.9801 8.05436 39.0728 8.03212C39.1655 8.00989 39.2623 8.00407 39.3576 8.01501C39.4528 8.02595 39.5447 8.05342 39.6279 8.09585C39.7111 8.13828 39.784 8.19483 39.8424 8.26223C39.9007 8.32964 39.9434 8.40658 39.968 8.48861C39.9925 8.57065 39.9985 8.65617 39.9854 8.74024C39.9724 8.82431 39.9407 8.90528 39.8921 8.97849ZM32.6596 14.252C32.563 14.1043 32.5368 13.9286 32.5868 13.7638C32.6368 13.599 32.7589 13.4584 32.9262 13.3731L32.9459 13.3641C33.0336 13.3314 33.1228 13.3018 33.2132 13.2753C33.383 13.2251 33.5993 13.1692 33.8507 13.1093C34.4166 12.9767 34.9854 12.854 35.5568 12.7413L35.6639 12.72L35.5896 12.7915C35.1932 13.1721 34.7883 13.5458 34.3752 13.9123C34.1909 14.0745 34.0277 14.2115 33.8944 14.317C33.823 14.3728 33.7491 14.426 33.6729 14.4766L33.6547 14.4875C33.4874 14.5729 33.2885 14.596 33.1019 14.5518C32.9153 14.5077 32.7562 14.3998 32.6596 14.252ZM35.5211 15.665C35.4238 15.8116 35.2648 15.9182 35.0789 15.9617C34.8929 16.0051 34.695 15.9818 34.5284 15.8968C34.3618 15.8119 34.24 15.6722 34.1896 15.5082C34.1392 15.3442 34.1643 15.1693 34.2594 15.0216L34.2717 15.0055C34.3291 14.9385 34.3894 14.8735 34.4524 14.8105C34.6007 14.6651 34.7535 14.5233 34.9106 14.3852C35.3255 14.0203 35.7486 13.6627 36.1797 13.3126L36.2605 13.247L36.2365 13.3416C36.1089 13.8463 35.97 14.3487 35.8198 14.8485C35.7521 15.0705 35.6887 15.2616 35.6318 15.4115C35.6019 15.4914 35.5683 15.5701 35.5313 15.6477C35.5281 15.6535 35.5247 15.6593 35.5211 15.665ZM37.0757 12.9652C36.7859 12.9652 36.508 12.8635 36.303 12.6825C36.0981 12.5015 35.983 12.256 35.983 12C35.983 11.7441 36.0981 11.4986 36.303 11.3176C36.508 11.1366 36.7859 11.0349 37.0757 11.0349C37.3656 11.0349 37.6435 11.1366 37.8484 11.3176C38.0534 11.4986 38.1685 11.7441 38.1685 12C38.1685 12.256 38.0534 12.5015 37.8484 12.6825C37.6435 12.8635 37.3656 12.9652 37.0757 12.9652Z" fill="#F0EBF4"/>
</g>
<path fill-rule="evenodd" clip-rule="evenodd" d="M18.5417 15.6766C18.7223 15.6075 18.9246 15.698 18.9936 15.8786C19.5308 17.2844 19.8571 19.5171 20.0514 21.7026C20.2467 23.8997 20.3118 26.0921 20.3118 27.4424C20.3118 27.6358 20.1551 27.7925 19.9618 27.7925C19.7685 27.7925 19.6118 27.6358 19.6118 27.4424C19.6118 26.1095 19.5474 23.9382 19.3542 21.7646C19.1599 19.5793 18.8387 17.4343 18.3398 16.1286C18.2707 15.948 18.3612 15.7456 18.5417 15.6766Z" fill="#F0EBF4"/>
<g clip-path="url(#clip4_11_75)">
<path d="M14.3613 3.15598C14.5252 2.84185 14.7919 2.57508 15.1292 2.38788C15.4664 2.20069 15.8597 2.10107 16.2616 2.10107C16.6635 2.10107 17.0569 2.20069 17.3941 2.38788C17.7313 2.57508 17.998 2.84185 18.162 3.15598C18.4874 2.95376 18.8744 2.83658 19.276 2.81862C19.6776 2.80066 20.0767 2.88267 20.425 3.05475C20.7733 3.22683 21.0559 3.48161 21.2387 3.78827C21.4214 4.09494 21.4965 4.44036 21.4548 4.78277C21.8548 4.74707 22.2583 4.81133 22.6165 4.96778C22.9748 5.12423 23.2724 5.36616 23.4734 5.66434C23.6744 5.96251 23.7702 6.30415 23.7492 6.64795C23.7283 6.99174 23.5914 7.32297 23.3551 7.60159C23.7221 7.74195 24.0337 7.97026 24.2524 8.25894C24.4711 8.54762 24.5874 8.88432 24.5874 9.22838C24.5874 9.57244 24.4711 9.90914 24.2524 10.1978C24.0337 10.4865 23.7221 10.7148 23.3551 10.8552C23.5914 11.1338 23.7283 11.465 23.7492 11.8088C23.7702 12.1526 23.6744 12.4943 23.4734 12.7924C23.2724 13.0906 22.9748 13.3325 22.6165 13.489C22.2583 13.6454 21.8548 13.7097 21.4548 13.674C21.4965 14.0164 21.4214 14.3618 21.2387 14.6685C21.0559 14.9752 20.7733 15.2299 20.425 15.402C20.0767 15.5741 19.6776 15.6561 19.276 15.6381C18.8744 15.6202 18.4874 15.503 18.162 15.3008C17.998 15.6149 17.7313 15.8817 17.3941 16.0689C17.0569 16.2561 16.6635 16.3557 16.2616 16.3557C15.8597 16.3557 15.4664 16.2561 15.1292 16.0689C14.7919 15.8817 14.5252 15.6149 14.3613 15.3008C14.0358 15.503 13.6489 15.6202 13.2473 15.6381C12.8456 15.6561 12.4466 15.5741 12.0982 15.402C11.7499 15.2299 11.4673 14.9752 11.2846 14.6685C11.1018 14.3618 11.0267 14.0164 11.0684 13.674C10.6684 13.7097 10.2649 13.6454 9.90671 13.489C9.54848 13.3325 9.25086 13.0906 9.04984 12.7924C8.84882 12.4943 8.75301 12.1526 8.774 11.8088C8.79498 11.465 8.93186 11.1338 9.16808 10.8552C8.80113 10.7148 8.4895 10.4865 8.27083 10.1978C8.05215 9.90914 7.93579 9.57244 7.93579 9.22838C7.93579 8.88432 8.05215 8.54762 8.27083 8.25894C8.4895 7.97026 8.80113 7.74195 9.16808 7.60159C8.93186 7.32297 8.79498 6.99174 8.774 6.64795C8.75301 6.30415 8.84882 5.96251 9.04984 5.66434C9.25086 5.36616 9.54848 5.12423 9.90671 4.96778C10.2649 4.81133 10.6684 4.74707 11.0684 4.78277C11.0267 4.44036 11.1018 4.09494 11.2846 3.78827C11.4673 3.48161 11.7499 3.22683 12.0982 3.05475C12.4466 2.88267 12.8456 2.80066 13.2473 2.81862C13.6489 2.83658 14.0358 2.95376 14.3613 3.15598ZM16.2616 2.99205C16.1225 2.99224 15.9848 3.01631 15.8566 3.06285C15.7285 3.10939 15.6126 3.17745 15.5158 3.26301C15.419 3.34856 15.3432 3.44987 15.2929 3.56095C15.2426 3.67202 15.2188 3.79061 15.223 3.90968L15.2334 3.99075C15.2459 4.05935 15.2636 4.14755 15.2896 4.25446C15.3406 4.46917 15.4166 4.73733 15.5113 5.04469C15.7007 5.65764 15.9567 6.39263 16.2148 7.10625L16.2616 7.23454L16.3084 7.10625C16.5665 6.39352 16.8226 5.65764 17.012 5.04469C17.1067 4.73733 17.1827 4.46917 17.2336 4.25446C17.2611 4.14062 17.2833 4.0259 17.3003 3.91057L17.3023 3.88295C17.3023 3.64667 17.1927 3.42007 16.9975 3.25299C16.8023 3.08591 16.5376 2.99205 16.2616 2.99205ZM10.0173 10.1193L10.0485 10.1175L10.1432 10.1086C10.2465 10.0952 10.3492 10.0792 10.4513 10.0605C10.7021 10.0168 11.0154 9.9518 11.3744 9.87072C12.1817 9.68366 12.9846 9.48287 13.7826 9.26847L13.9325 9.22838L13.7826 9.18829C12.9846 8.97389 12.1817 8.7731 11.3744 8.58604C11.0688 8.5156 10.761 8.45233 10.4513 8.39628C10.3183 8.37278 10.1843 8.35376 10.0496 8.33926L10.0173 8.33748C9.74129 8.33748 9.47658 8.43134 9.28141 8.59842C9.08624 8.76549 8.97659 8.9921 8.97659 9.22838C8.97659 9.46466 9.08624 9.69127 9.28141 9.85835C9.47658 10.0254 9.74129 10.1193 10.0173 10.1193ZM17.3023 14.5738L17.3003 14.5471C17.2833 14.4318 17.2611 14.317 17.2336 14.2032C17.1683 13.9378 17.0944 13.674 17.012 13.4121C16.7935 12.721 16.5589 12.0336 16.3084 11.3505L16.2616 11.2222L16.2148 11.3505C15.9567 12.0632 15.7007 12.7991 15.5113 13.4121C15.4166 13.7194 15.3406 13.9876 15.2896 14.2023C15.2621 14.3161 15.2399 14.4309 15.223 14.5462L15.2209 14.5738C15.2209 14.8101 15.3305 15.0367 15.5257 15.2038C15.7209 15.3708 15.9856 15.4647 16.2616 15.4647C16.5376 15.4647 16.8023 15.3708 16.9975 15.2038C17.1927 15.0367 17.3023 14.8101 17.3023 14.5738ZM11.3744 12.6726L11.4004 12.6575C11.5089 12.5874 11.6141 12.5137 11.7158 12.4365C11.9073 12.2904 12.1404 12.1007 12.4037 11.8761C12.9939 11.3687 13.5723 10.8513 14.1386 10.3242L14.2457 10.2253L14.0928 10.2547C13.2761 10.4108 12.4631 10.5807 11.6544 10.7643C11.2964 10.8472 10.9883 10.9247 10.7448 10.9942C10.6157 11.0309 10.4882 11.0719 10.3628 11.1171L10.3347 11.1296C10.2154 11.1876 10.1107 11.2653 10.0266 11.3582C9.94252 11.4511 9.88071 11.5572 9.84475 11.6706C9.80879 11.784 9.79938 11.9024 9.81707 12.0189C9.83476 12.1354 9.8792 12.2478 9.94783 12.3495C10.0165 12.4513 10.1079 12.5404 10.2169 12.6118C10.326 12.6831 10.4504 12.7353 10.5831 12.7654C10.7158 12.7954 10.8541 12.8027 10.9901 12.7867C11.1261 12.7708 11.257 12.732 11.3754 12.6726H11.3744ZM12.6191 14.629C12.8581 14.7472 13.1422 14.7792 13.4088 14.718C13.6754 14.6569 13.9027 14.5076 14.0407 14.303L14.0553 14.2789C14.0657 14.2611 14.0771 14.2362 14.0928 14.2041C14.131 14.121 14.1664 14.0369 14.1989 13.952C14.2801 13.7444 14.3706 13.4798 14.4674 13.1733C14.682 12.481 14.8805 11.785 15.0627 11.0859L15.0971 10.955L14.9826 11.0458C14.3665 11.5306 13.7617 12.0257 13.1686 12.531C12.9443 12.7219 12.726 12.918 12.514 13.119C12.4239 13.2063 12.3378 13.2967 12.2559 13.3898L12.2382 13.4121C12.1002 13.6167 12.0628 13.8599 12.1342 14.0881C12.2057 14.3163 12.3801 14.5109 12.6191 14.629ZM22.1895 7.32719C22.4266 7.20821 22.5991 7.01378 22.6694 6.78634C22.7396 6.5589 22.7019 6.3169 22.5645 6.11316C22.4271 5.90942 22.2011 5.76048 21.9359 5.69884C21.6707 5.6372 21.3877 5.66787 21.1488 5.78414L21.1228 5.79929C21.0143 5.86935 20.9091 5.94306 20.8075 6.02023C20.5722 6.20163 20.3429 6.38849 20.1196 6.58061C19.5293 7.08805 18.9509 7.60547 18.3847 8.13257L18.2785 8.23146L18.4315 8.20206C19.2478 8.04605 20.0604 7.87615 20.8689 7.69246C21.2279 7.60961 21.537 7.5321 21.7795 7.46261C21.9086 7.42592 22.0361 7.38491 22.1614 7.33966C22.1709 7.33574 22.1803 7.33158 22.1895 7.32719ZM19.9041 3.82772C19.6651 3.70958 19.381 3.67757 19.1144 3.73872C18.8478 3.79987 18.6205 3.94917 18.4825 4.15379L18.4679 4.17784C18.4575 4.19566 18.4461 4.22061 18.4305 4.25268C18.3922 4.33581 18.3568 4.41989 18.3243 4.50481C18.2431 4.71239 18.1526 4.97699 18.0558 5.28435C17.8412 5.9764 17.6428 6.67204 17.4605 7.37085L17.4262 7.50181L17.5407 7.41094C18.1567 6.9262 18.7615 6.43106 19.3546 5.9258C19.6169 5.7004 19.8386 5.50084 20.0092 5.3378C20.0994 5.25045 20.1855 5.1601 20.2673 5.06697L20.285 5.04469C20.423 4.84007 20.4604 4.5969 20.389 4.36868C20.3176 4.14045 20.1432 3.94586 19.9041 3.82772ZM22.5059 10.1193C22.7819 10.1193 23.0466 10.0254 23.2418 9.85835C23.437 9.69127 23.5466 9.46466 23.5466 9.22838C23.5466 8.9921 23.437 8.76549 23.2418 8.59842C23.0466 8.43134 22.7819 8.33748 22.5059 8.33748L22.4747 8.33926C22.34 8.35377 22.206 8.37279 22.073 8.39628C21.8211 8.43993 21.5079 8.50497 21.1488 8.58604C20.4328 8.74818 19.5742 8.96735 18.7406 9.18829L18.5907 9.22838L18.7406 9.26847C19.5732 9.48942 20.4328 9.70858 21.1488 9.87072C21.5079 9.9518 21.8211 10.0168 22.0719 10.0605C22.2049 10.084 22.3389 10.103 22.4737 10.1175L22.5059 10.1193ZM9.95279 6.11022C9.88327 6.2135 9.83868 6.32768 9.82165 6.44599C9.80462 6.56429 9.8155 6.68432 9.85363 6.79897C9.89177 6.91361 9.9564 7.02054 10.0437 7.11341C10.131 7.20629 10.2391 7.28322 10.3618 7.33966L10.4492 7.37085C10.5241 7.39757 10.622 7.42786 10.7437 7.46261C10.9862 7.5321 11.2953 7.60961 11.6533 7.69246C12.4621 7.87609 13.2751 8.04599 14.0917 8.20206L14.2447 8.23146L14.1375 8.13257C13.5716 7.60546 12.9936 7.08804 12.4037 6.58061C12.1807 6.38851 11.9517 6.20164 11.7168 6.02023C11.6148 5.94307 11.5092 5.86936 11.4004 5.79929L11.3744 5.78414C11.1354 5.66601 10.8513 5.63399 10.5847 5.69514C10.3181 5.75629 10.0908 5.9056 9.95279 6.11022ZM12.2382 5.04469L12.2559 5.06697C12.3378 5.1598 12.4239 5.24985 12.514 5.33691C12.6847 5.50084 12.9063 5.7004 13.1686 5.9258C13.7613 6.43109 14.3658 6.92623 14.9815 7.41094L15.0971 7.50181L15.0627 7.37085C14.8805 6.67204 14.682 5.9764 14.4674 5.28435C14.3706 4.97699 14.2801 4.71239 14.1989 4.50481C14.156 4.39426 14.1081 4.28518 14.0553 4.17784L14.0407 4.15379C13.9729 4.05165 13.8821 3.96201 13.7736 3.89002C13.6652 3.81804 13.5411 3.76513 13.4087 3.73434C13.2762 3.70356 13.138 3.69551 13.0019 3.71065C12.8658 3.7258 12.7345 3.76384 12.6156 3.82258C12.4968 3.88133 12.3927 3.95963 12.3093 4.05296C12.2259 4.14629 12.1649 4.25282 12.1299 4.36641C12.0948 4.48 12.0863 4.59841 12.1049 4.71481C12.1235 4.83122 12.1688 4.94334 12.2382 5.04469ZM22.5704 12.3465C22.7084 12.1419 22.7458 11.8988 22.6744 11.6705C22.603 11.4423 22.4286 11.2477 22.1895 11.1296L22.1614 11.1171C22.0361 11.0719 21.9086 11.0308 21.7795 10.9942C21.537 10.9247 21.2279 10.8472 20.8689 10.7643C20.0604 10.5806 19.2478 10.4107 18.4315 10.2547L18.2785 10.2253L18.3847 10.3242C18.9509 10.8513 19.5293 11.3687 20.1196 11.8761C20.3829 12.1007 20.616 12.2904 20.8064 12.4365C20.9084 12.5137 21.014 12.5874 21.1228 12.6575L21.1488 12.6726C21.3879 12.7908 21.6719 12.8228 21.9385 12.7616C22.2051 12.7005 22.4324 12.5512 22.5704 12.3465ZM18.4825 14.303C18.6215 14.5059 18.8486 14.6536 19.1143 14.7137C19.38 14.7738 19.6627 14.7416 19.9007 14.6239C20.1387 14.5063 20.3127 14.3129 20.3847 14.0858C20.4567 13.8588 20.4209 13.6166 20.285 13.4121L20.2673 13.3898C20.1854 13.297 20.0993 13.207 20.0092 13.1199C19.7973 12.9185 19.5791 12.7221 19.3546 12.531C18.7619 12.0257 18.1575 11.5305 17.5417 11.0458L17.4262 10.955L17.4605 11.0859C17.6428 11.7847 17.8412 12.4804 18.0558 13.1724C18.1526 13.4798 18.2431 13.7444 18.3243 13.952C18.3672 14.0625 18.4151 14.1716 18.4679 14.2789C18.4725 14.287 18.4774 14.2951 18.4825 14.303ZM16.2616 10.5647C16.6756 10.5647 17.0727 10.4239 17.3655 10.1733C17.6582 9.92271 17.8227 9.58281 17.8227 9.22838C17.8227 8.87396 17.6582 8.53405 17.3655 8.28343C17.0727 8.03282 16.6756 7.89202 16.2616 7.89202C15.8476 7.89202 15.4505 8.03282 15.1578 8.28343C14.865 8.53405 14.7005 8.87396 14.7005 9.22838C14.7005 9.58281 14.865 9.92271 15.1578 10.1733C15.4505 10.4239 15.8476 10.5647 16.2616 10.5647Z" fill="#F0EBF4"/>
</g>
<defs>
<clipPath id="clip0_11_75">
<rect width="13.2269" height="13.2358" fill="white" transform="matrix(-1 0 0 1 54.1235 0.994995)"/>
</clipPath>
<clipPath id="clip1_11_75">
<rect width="12.2094" height="12.2176" fill="white" transform="translate(0.198608 9.14014)"/>
</clipPath>
<clipPath id="clip2_11_75">
<rect width="12.2094" height="12.2176" fill="white" transform="translate(20.8169 11.0566)"/>
</clipPath>
<clipPath id="clip3_11_75">
<rect width="11.656" height="10.2949" fill="white" transform="matrix(-1 0 0 1 42.9038 6.85254)"/>
</clipPath>
<clipPath id="clip4_11_75">
<rect width="16.6515" height="14.2545" fill="white" transform="translate(7.93579 2.10107)"/>
</clipPath>
</defs>
</svg>
